<!--?xml version="1.0" encoding="utf-8"?-->
<!-- Generator: Adobe Illustrator 18.0.0, SVG Export Plug-In . SVG Version: 6.00 Build 0)  -->

<svg version="1.1" id="_x31_0" xmlns="http://www.w3.org/2000/svg" xmlns:xlink="http://www.w3.org/1999/xlink" x="0px" y="0px" viewBox="0 0 512 512" style="width: 256px; height: 256px; opacity: 1;" xml:space="preserve">
<style type="text/css">
	.st0{fill:#374149;}
</style>
<g>
	<path class="st0" d="M256,0C114.614,0,0,114.614,0,256s114.614,256,256,256s256-114.614,256-256S397.386,0,256,0z M256,448
		c-105.867,0-192-86.133-192-192S150.133,64,256,64s192,86.133,192,192S361.867,448,256,448z" style="fill: rgb(75, 75, 75);"></path>
	<path class="st0" d="M263.211,122.125c-3.622-4.781-10.801-4.781-14.422,0l-94.152,124.282c-4.516,5.961-0.266,14.511,7.207,14.511
		h40.168c4.996,0,9.046,4.051,9.046,9.043v114.454c0,4.996,4.051,9.046,9.043,9.046h71.797c4.992,0,9.043-4.05,9.043-9.046V269.961
		c0-4.992,4.05-9.043,9.046-9.043h40.168c7.473,0,11.723-8.55,7.211-14.511L263.211,122.125z" style="fill: rgb(75, 75, 75);"></path>
</g>
</svg>
